<?xml version="1.0" encoding="utf-8"?>
<svg version="1.1" 
id="DACHPC-LOGO" 
xmlns="http://www.w3.org/2000/svg" 
xmlns:xlink="http://www.w3.org/1999/xlink" 
x="0px"
y="0px"
width="200"
viewBox="255 0 1990 635"
xml:space="preserve">
<style type="text/css">
	.st0{fill:#ffffff;}
	.st1{fill:#12B2FE;}
</style>
<path class="st0" d="M1092.5,1.5c-25.5,6.3-50.4,20-69.3,38c-26.1,24.8-40.1,48.6-47.1,80c-1.3,5.6-2.5,14.6-4.2,31
	c-1.3,12.6-0.6,53.9,1,62.5c0.6,3,1.5,8.4,2.1,12c2.4,14.6,4.3,22.6,7,29.5c0.4,1.1,1.6,4,2.5,6.5c3.5,8.8,11.7,25.6,14.1,28.7
	c1.3,1.7,2.4,3.4,2.4,3.8c0,1.6,13.2,17.7,19.8,24.3c10.7,10.7,26,21.4,37.7,26.5c2.2,1,4.8,2.2,5.8,2.8c4.4,2.4,19.9,7.2,29.7,9.2
	c17.6,3.6,23.8,4.2,44.5,4c16.6-0.1,23.1-0.6,31-2.1c14.7-3,19.9-4.3,20.9-5.3c0.6-0.5,1.6-0.9,2.4-0.9c0.8,0,4.8-1.6,8.9-3.5
	c4.1-1.9,7.6-3.5,7.8-3.5c0.2,0,3.9-2.1,8.2-4.6c16.4-9.7,38.6-26.2,37.4-27.8c-2-2.8-13-16.8-17.6-22.6c-2.8-3.6-10-12.7-16-20.3
	c-6.6-8.3-11.4-13.6-12.2-13.3c-0.7,0.3-6.1,3.5-11.9,7.2c-13.7,8.6-23.4,13.6-30.9,15.8c-3.3,1-7.4,2.2-9.1,2.7
	c-4.2,1.2-24.1,1.2-24.9-0.1c-0.3-0.6-1.8-1-3.3-1c-7.1,0-22.4-10.5-30.1-20.7c-4.3-5.7-10.7-18.8-11.6-23.8c-0.4-2.2-1-4.5-1.5-5
	c-1.8-2.4-5.8-27.2-6.9-43.7c-1.2-17.3,0.8-46.7,3.8-57.8c0.5-1.9,1.4-5.5,1.9-8c3.5-15.4,6.4-22.4,14.4-34.5
	c6.9-10.5,13.5-13.6,34-15.9c11.2-1.3,13.5-1.3,25.3,0.4c12.7,1.8,19.9,3.3,24,5c1.1,0.5,3.1,1.2,4.5,1.6c1.4,0.4,5.2,1.9,8.5,3.5
	c3.3,1.5,6.7,2.9,7.6,3.1c2.4,0.4,16.7-12,28-24.3c12.8-14.1,19.9-22.5,19.9-23.7c0-0.9-5.7-5.3-16.7-13c-1.8-1.2-3.6-2.2-4.2-2.2
	c-0.5,0-1.1-0.3-1.3-0.8c-0.6-1.5-27.5-14.2-30-14.2c-0.8,0-1.8-0.4-2.3-0.9c-1-0.9-5.8-2.3-16-4.6C1172.4-0.4,1100-0.4,1092.5,1.5z
	"/>
<path class="st0" d="M654.7,177.2c-25.2,94.8-46,173.3-46.4,174.6l-0.5,2.2l49.3-0.2l49.3-0.3l0.8-3c0.8-2.8,1.6-7.2,5.3-27.5
	c0.7-4.1,2-10.7,2.9-14.5c0.9-3.9,2.1-9.5,2.6-12.5c0.6-3,1.6-7,2.3-8.8l1.1-3.2H762h40.6l1.8,10.2c2.1,11.7,6,31.2,8.1,40.8
	c0.8,3.6,2.1,9.2,2.8,12.5l1.3,6l53.9,0.3c29.7,0.1,54.5,0,55.2-0.2c1.1-0.5,0.1-7.3-1.6-10.6c-0.5-0.9-1.2-3.1-1.5-5
	c-0.4-1.9-1.1-4.4-1.6-5.5c-0.5-1.1-1.5-4.5-2.4-7.5c-2.9-10.5-5.8-20.5-7.1-24.5c-1.8-5.6-3.9-12.9-9.2-31.5
	c-0.8-3-2.1-7.4-2.9-9.8c-0.8-2.3-1.4-5.1-1.4-6.1s-0.3-2.1-0.7-2.5c-0.5-0.4-1.3-2.9-2-5.4c-0.6-2.6-1.9-7.2-2.8-10.2
	c-0.9-3-2.2-7.8-3-10.5c-0.7-2.8-2.1-7.5-3-10.5c-0.9-3-2.2-7.8-3-10.5c-0.7-2.8-2.1-7.5-3-10.5c-0.9-3-2.2-7.8-3-10.5
	c-0.7-2.8-2.1-7.5-3-10.5c-0.9-3-2.2-7.8-3-10.5c-0.7-2.8-2.1-7.5-3-10.5c-0.9-3-2.3-7.8-3-10.5c-0.8-2.8-2.1-7.3-2.9-10
	c-0.9-2.8-2.1-7-2.7-9.5c-0.6-2.5-1.5-5.4-2-6.5c-1.6-4.2-4.9-15.9-4.9-17.6c0-1-0.4-2.1-1-2.4c-0.5-0.3-1-1.4-1-2.3
	c0-1.5-8.9-30.5-11-35.7c-2-4.9-5-15.3-5-17.1c0-1.1-0.4-2.4-0.9-3c-0.5-0.5-1.4-2.9-1.9-5.4c-1-4.2-1.9-7.6-5.5-20.5l-1.3-5
	l-62.5-0.3L700.5,5L654.7,177.2z M764.1,90.5c1.2,5.5,2.7,12.9,3.4,16.5c0.7,3.6,2.1,10.3,3,15c0.9,4.7,2.3,11.4,3,15
	c2.2,11.2,6.4,33,9,47.5c0.8,4.4,2.1,11.4,2.9,15.5c0.8,4.1,1.6,8.4,1.8,9.5c0.3,2-0.3,2-26,2.3c-21.3,0.2-26.3,0-26.8-1.1
	c-0.3-0.8,1.3-9.9,3.5-20.3c4-19,7.4-36.1,13.1-66.4c1.7-9.1,3.7-19.7,4.5-23.5c0.7-3.9,2.2-11.2,3.2-16.3
	C760.7,73.7,760.5,73.5,764.1,90.5z"/>
<path class="st0" d="M1329,179.5V354l51.3-0.2l51.2-0.3l0.3-71.3l0.2-71.2h40h40l0.2,71.2l0.3,71.3l51.3,0.3l51.2,0.2V179.5V5
	l-51.2,0.2l-51.3,0.3l-0.3,61.2L1512,128h-40h-40l-0.2-61.3l-0.3-61.2l-51.2-0.3L1329,5V179.5z"/>
<path class="st0" d="M263.7,7.6c-1,1.1-0.9,345.2,0.2,345.8c0.5,0.3,27.8,0.7,60.7,0.8c63.8,0.2,70-0.1,106.5-5.2
	c6.4-0.9,27.3-6,32.1-7.9c16-6.2,24.8-10.4,33.7-15.9c4.2-2.5,7.8-4.9,8.1-5.2c0.3-0.3,2.8-2.2,5.5-4.2c6.8-4.9,18.5-17,23.6-24.2
	c13.4-19.4,20.8-39.9,26.1-73.1c2.8-17.9,3.1-63.3,0.5-83.5c-5-38.3-12.8-56-34.2-77.6c-16.6-16.7-26.2-23.3-49-33.4
	c-9-4-11.6-5-13-5c-0.8,0-2.3-0.4-3.3-0.9c-3.8-2.1-17.3-5.4-29.2-7.2c-3.6-0.6-8.1-1.5-10-2.1C418,7.5,265,6.4,263.7,7.6z M409,75
	c13.8,2.3,22.3,7.3,29.4,17.4c4.1,5.9,10.6,18.5,10.6,20.7c0,0.5,0.6,3.1,1.4,5.7c9.8,33.2,8.5,92.5-2.7,122.4
	c-10.7,28.2-23.3,36.8-59,40.2c-9.3,0.9-17.5,1.6-18.3,1.6c-1.2,0-1.4-14.2-1.4-105.2V72.7l16.8,0.6C395,73.7,405.4,74.4,409,75z"/>
<path class="st1" d="M2129,9.6c-6.3,1.1-17.7,3.6-19.5,4.4c-1.1,0.5-3.1,1.2-4.5,1.5c-5.4,1.4-21.3,9.2-29,14.3
	c-27.1,17.7-48.4,45.2-58.5,75.5c-6.4,19.2-11.3,59.3-10.2,83.6c0.7,15.3,2.3,31.3,3.7,38.1c3.7,17,5.3,23.6,7.9,31.5
	c3.7,11.4,9.1,23.9,13.6,31.6c1.9,3.3,3.5,6.2,3.5,6.5c0,1.6,13,17.1,20.2,23.9c18.6,18,34.3,26.8,58.8,33
	c14.4,3.6,49.2,3.9,62.1,0.5c13-3.4,22.1-6.8,33.6-12.5c12.4-6.1,28.3-16,28.3-17.5c0-0.7-6.3-9.2-9.4-12.5c-1-1.1-2.5-3-3.3-4.3
	c-1.9-2.8-2.2-2.8-6.9,0.4c-2.1,1.5-5.5,3.6-7.4,4.7c-1.9,1.1-5.7,3.3-8.5,4.9c-12.5,7.2-27.1,12.5-39,13.9
	c-11.3,1.4-34.7,0.5-40.7-1.6c-2.4-0.8-5.1-1.5-6.1-1.5c-1.1,0-3.5-0.7-5.5-1.6c-21.6-9.7-30.8-16.5-42.4-31.7
	c-10.9-14.3-20.9-36.6-25.2-56.7c-0.9-4.1-2.1-9.5-2.7-11.9c-2.2-9.7-3.3-43.3-2.1-66.9c0.6-12.5,1.6-24.8,2.1-27.3
	c0.5-2.4,1.8-8,2.7-12.4c2.6-11.8,5-19,9.6-28.5c4.9-10.1,10.3-17.4,19-25.6c25.9-24.2,51.5-33.7,84.8-31.3
	c12.5,0.8,26.7,4.8,34.1,9.5c2.1,1.3,4.1,2.4,4.5,2.4c0.3,0,5.5,2.9,11.4,6.5c5.9,3.6,11.2,6.5,11.7,6.5c0.6,0,3.2-2.8,5.9-6.3
	c2.7-3.4,5.9-7.3,7.1-8.7c2.8-3,2.8-3.3,0.6-5.2c-3.3-2.8-26.8-16.4-33.3-19.2c-19.7-8.5-26.1-9.8-49-10.2
	C2140.3,9.3,2130.4,9.4,2129,9.6z"/>
<path class="st1" d="M1721.8,12.7L1693,13v170.5V354h3.8c2.2,0,8.7-0.3,14.5-0.7l10.7-0.6v-66.4V220h20.8c20.2,0,39-1,54.2-3
	c52.4-6.9,84.6-28,96.1-63.1c3.9-11.9,5.8-20.9,6.8-32.2c4.4-50.4-21.4-87.6-69.9-101C1805.2,13.8,1782.7,12.1,1721.8,12.7z
	 M1790,38c12.5,1.4,22.4,3.1,23.5,4.1c0.5,0.5,1.7,0.9,2.7,0.9c2,0,9.8,2.5,14.8,4.8c7.1,3.2,17.9,11.2,24,17.9
	c11.7,12.7,14.8,24.3,13.6,52.3c-1.5,37-15,57-46.3,68.2c-19.2,7-26.6,7.9-67,8.5l-33.3,0.4v-79V37l30.3,0.1
	C1768.9,37.1,1785.9,37.5,1790,38z"/>
<path class="st1" d="M773.2,434.3l-4.2,4.3v14.5v14.5l4.5,4.4l4.5,4.4l5-4.9l5-4.9V453v-13.6l-4.8-4.7c-2.6-2.6-5-4.7-5.3-4.7
	S775.5,431.9,773.2,434.3z"/>
<path class="st1" d="M1448.7,434.8l-4.7,4.8v13.5v13.5l5.1,4.9l5.1,5l4.4-5l4.4-4.9v-14v-14l-4.2-4.3c-2.3-2.4-4.5-4.3-4.8-4.3
	C1453.7,430,1451.3,432.2,1448.7,434.8z"/>
<path class="st1" d="M1770.2,434.3l-4.2,4.3v14.1v14.1l4.4,4.9l4.4,4.8l5.1-5l5.1-4.9V453v-13.6l-4.8-4.7c-2.6-2.6-5-4.7-5.3-4.7
	S1772.5,431.9,1770.2,434.3z"/>
<path class="st1" d="M463.1,438.2c3.3,3.7,7.6,8.1,9.5,9.7l3.5,3.1h19.2h19.2l4.8-4.1c2.6-2.2,4.7-4.6,4.7-5.3
	c0-0.7-2.2-3.1-4.8-5.3l-4.8-4.1l-28.6-0.4l-28.6-0.4L463.1,438.2z"/>
<path class="st1" d="M944.3,436.9l-4.3,5v25.4v25.5l4.4,4.9l4.4,4.8l5.1-5l5.1-4.9v-25.8V441l-4.1-4.5c-2.3-2.5-4.7-4.5-5.3-4.5
	C949,432,946.6,434.2,944.3,436.9z"/>
<path class="st1" d="M1101.7,436.8l-4.7,4.8v22.5v22.5l4.8,4.7l4.8,4.7l4.7-4.8l4.7-4.8v-22.5v-22.5l-4.8-4.7l-4.8-4.7L1101.7,436.8
	z"/>
<path class="st1" d="M455,462.6v30l4.9,4.8l4.8,4.7l4.7-5.4l4.6-5.4v-18.8v-18.8l-6.3-6.6c-3.4-3.6-7.7-8.4-9.5-10.6l-3.2-4V462.6z"
	/>
<path class="st1" d="M521.2,448.3l-4.2,4.3v19.8v19.9l4.4,4.7l4.4,4.7l5.1-5.1l5.1-5.2v-19v-19l-4.8-4.7c-2.6-2.6-5-4.7-5.3-4.7
	S523.5,445.9,521.2,448.3z"/>
<path class="st1" d="M559.7,451.8c-4.5,4.5-4.7,5.1-4.7,10.3c0,5,0.3,5.8,4.4,10.4l4.4,5l5.1-5c4.9-4.8,5.1-5.1,5.1-10.5
	c0-5.3-0.2-5.8-4.8-10.3l-4.8-4.7L559.7,451.8z"/>
<path class="st1" d="M700.7,451.8c-4.5,4.5-4.7,5.1-4.7,10.3c0,5,0.3,5.8,4.4,10.4l4.4,5l5.1-5c4.9-4.8,5.1-5.1,5.1-10.5
	c0-5.3-0.2-5.8-4.8-10.3l-4.8-4.7L700.7,451.8z"/>
<path class="st1" d="M1871.7,451.8c-4.5,4.5-4.7,5.1-4.7,10.3c0,5,0.3,5.8,4.4,10.4l4.4,5l5.1-5c4.9-4.8,5.1-5.1,5.1-10.5
	c0-5.3-0.2-5.8-4.8-10.3l-4.8-4.7L1871.7,451.8z"/>
<path class="st1" d="M733.5,475l-4.9,5l4.9,5l4.9,5h13.1l13-0.1l5.4-4.8l5.4-4.9l-5.4-5.1l-5.4-5l-13-0.1h-13.1L733.5,475z"/>
<path class="st1" d="M786.6,474.9l-4.9,5l4.9,4.5l4.9,4.5l14,0.1h14.1l4.4-4.5l4.4-4.5l-4.9-5l-4.9-5H805h-13.6L786.6,474.9z"/>
<path class="st1" d="M855.8,474.6c-2.7,2.5-4.8,4.9-4.8,5.4s2.1,2.7,4.8,4.9l4.7,4.1H880h19.6l4.8-4.9l4.7-4.8l-5.3-4.7l-5.3-4.6
	h-19h-19L855.8,474.6z"/>
<path class="st1" d="M1199.7,474.8l-4.7,4.8l4.8,4.7l4.8,4.7h19.4h19.5l4.8-4.7l4.9-4.6l-4.8-4.8l-4.8-4.9H1224h-19.6L1199.7,474.8z
	"/>
<path class="st1" d="M1297.8,474.6c-2.7,2.5-4.8,4.9-4.8,5.4s2.1,2.7,4.8,4.9l4.7,4.1h19.5h19.6l4.8-4.9l4.7-4.8l-5.3-4.7l-5.3-4.6
	h-19h-19L1297.8,474.6z"/>
<path class="st1" d="M1397.7,474.8l-4.7,4.8l4.8,4.7l4.8,4.7h19.5h19.5l4.7-4.8l4.7-4.8l-4.8-4.7l-4.8-4.7h-19.5h-19.5L1397.7,474.8
	z"/>
<path class="st1" d="M1496.7,474.8l-4.7,4.8l4.8,4.7l4.8,4.7h19.4h19.5l4.8-4.7l4.9-4.6l-4.8-4.8l-4.8-4.9H1521h-19.6L1496.7,474.8z
	"/>
<path class="st1" d="M1679.7,474.8l-4.7,4.8l4.8,4.7l4.8,4.7h19.4h19.5l4.8-4.7l4.9-4.6l-4.8-4.8l-4.8-4.9H1704h-19.6L1679.7,474.8z
	"/>
<path class="st1" d="M1782.7,474.8l-4.7,4.8l4.8,4.7l4.8,4.7h19.5h19.5l4.7-4.8l4.7-4.8l-4.8-4.7l-4.8-4.7h-19.5h-19.5L1782.7,474.8
	z"/>
<path class="st1" d="M610.7,475.8l-4.7,4.8l4.8,4.7l4.8,4.7h19.5h19.5l4.7-4.8l4.7-4.8l-4.8-4.7l-4.8-4.7h-19.5h-19.5L610.7,475.8z"
	/>
<path class="st1" d="M1595.7,475.8l-4.7,4.8l4.8,4.7l4.8,4.7h19.4l19.5-0.1l5-4.4l4.9-4.5l-4.9-5l-4.9-5H1620h-19.6L1595.7,475.8z"
	/>
<path class="st1" d="M1922.6,475.6l-4.9,4.5l4.9,5l4.8,4.9h19.6h19.6l4.7-4.8l4.7-4.8l-4.8-4.7l-4.8-4.7H1947l-19.5,0.1
	L1922.6,475.6z"/>
<path class="st1" d="M1188.7,486.8l-4.7,4.8v9.5v9.5l4.5,4.4l4.5,4.4l5-4.9l5-4.9v-9.1v-9.1l-4.8-4.7l-4.8-4.7L1188.7,486.8z"/>
<path class="st1" d="M1249.6,487.2l-4.6,5.3v9v9.1l4.8,4.7l4.8,4.7l4.7-4.8l4.7-4.8v-9.5v-9.5l-4.9-4.8l-4.8-4.7L1249.6,487.2z"/>
<path class="st1" d="M1485.7,486.8l-4.7,4.8v9.5v9.5l4.5,4.4l4.5,4.4l5-4.9l5-4.9v-9.1v-9.1l-4.8-4.7l-4.8-4.7L1485.7,486.8z"/>
<path class="st1" d="M1546.6,487.2l-4.6,5.3v9v9.1l4.8,4.7l4.8,4.7l4.7-4.8l4.7-4.8v-9.5v-9.5l-4.9-4.8l-4.8-4.7L1546.6,487.2z"/>
<path class="st1" d="M1668.7,486.8l-4.7,4.8v9.5v9.5l4.5,4.4l4.5,4.4l5-4.9l5-4.9v-9.1v-9.1l-4.8-4.7l-4.8-4.7L1668.7,486.8z"/>
<path class="st1" d="M558.7,487.8l-4.7,4.8v37.5v37.5l4.8,4.7l4.8,4.7l4.7-4.8l4.7-4.8v-37.5v-37.5l-4.8-4.7l-4.8-4.7L558.7,487.8z"
	/>
<path class="st1" d="M699.7,487.8l-4.7,4.8v37.5v37.5l4.8,4.7l4.8,4.7l4.7-4.8l4.7-4.8v-37.5v-37.5l-4.8-4.7l-4.8-4.7L699.7,487.8z"
	/>
<path class="st1" d="M773.8,487.7l-4.6,4.8l-0.4,36.7l-0.3,36.8l4.8,4.7l4.7,4.8l4.3-4.9c3.1-3.7,4.4-6.2,4.9-9.5
	c0.3-2.5,0.7-19,0.7-36.6l0.1-32l-4.6-4.8c-2.5-2.6-4.6-4.7-4.7-4.7C778.5,483,776.3,485.1,773.8,487.7z"/>
<path class="st1" d="M906.7,487.8l-4.7,4.8v8.9v9l4.1,4.7c2.2,2.7,4.7,4.8,5.4,4.8s3.2-2.2,5.4-4.9l4.1-4.9v-9.3v-9.3l-4.2-4.3
	c-2.3-2.4-4.5-4.3-4.8-4.3S909.3,485.2,906.7,487.8z"/>
<path class="st1" d="M1348.7,487.8l-4.7,4.8v8.9v9l4.1,4.7c2.2,2.7,4.7,4.8,5.4,4.8c0.7,0,3.2-2.2,5.4-4.9l4.1-4.9v-9.3v-9.3
	l-4.2-4.3c-2.3-2.4-4.5-4.3-4.8-4.3C1353.7,483,1351.3,485.2,1348.7,487.8z"/>
<path class="st1" d="M1385.7,487.8l-4.7,4.8V523l0.1,30.5l4.5,4.9l4.5,4.9l5-4.9l4.9-4.8v-30.5v-30.4l-4.2-4.6
	c-2.3-2.5-4.5-4.7-4.8-4.9C1390.7,483.1,1388.3,485.1,1385.7,487.8z"/>
<path class="st1" d="M1770.8,487.7l-4.7,4.8l-0.2,36.8l-0.3,36.8l4.8,4.7l4.7,4.7l4.4-5c2.4-2.7,4.6-6.3,4.9-7.8
	c0.3-1.6,0.6-18,0.6-36.5v-33.5l-4.2-4.6c-2.3-2.5-4.5-4.7-4.8-4.9C1775.7,483.1,1773.3,485.1,1770.8,487.7z"/>
<path class="st1" d="M1870.7,487.8l-4.7,4.8v37.5v37.5l4.8,4.7l4.8,4.7l4.7-4.8l4.7-4.8v-37.5v-37.5l-4.8-4.7l-4.8-4.7L1870.7,487.8
	z"/>
<path class="st1" d="M1910.7,487.8l-4.7,4.8v31v31l4.9,4.8l4.8,4.7l4.7-5.4l4.6-5.4v-30.4v-30.5l-4.8-4.7l-4.8-4.7L1910.7,487.8z"/>
<path class="st1" d="M598.7,488.8l-4.7,4.8v30.5v30.5l5,4.9l5,4.9l4.6-4.5l4.6-4.6l-0.1-30.9l-0.2-30.9l-4.7-4.8l-4.7-4.7
	L598.7,488.8z"/>
<path class="st1" d="M1448.7,488.8l-4.7,4.8v30.6v30.6l4.4,4.9l4.4,4.8l5.1-5l5.1-4.9V524v-30.6l-4.8-4.7l-4.8-4.7L1448.7,488.8z"/>
<path class="st1" d="M1584.7,488.8l-4.7,4.8v35.3v35.4l4.6,5.4l4.7,5.4l4.8-4.7l4.9-4.8v-36.3V493l-4.1-4.5
	c-2.3-2.5-4.5-4.5-4.8-4.5C1589.7,484,1587.3,486.2,1584.7,488.8z"/>
<path class="st1" d="M1833.5,489l-4.9,5l-0.4,36.2l-0.4,36.3l4.9,4.8l4.9,4.7l4.6-4.7l4.7-4.8l0.6-36.5l0.7-36.5l-4.9-4.8l-4.9-4.7
	L1833.5,489z"/>
<path class="st1" d="M1973.2,488.3l-4.3,4.3l-0.5,31l-0.6,30.9l5,4.9l5.1,4.9l4.4-4.8l4.4-4.9l0.7-30.5l0.7-30.4l-4.8-4.9
	c-2.6-2.6-5-4.8-5.3-4.8C1977.7,484,1975.5,485.9,1973.2,488.3z"/>
<path class="st1" d="M662.2,490.3l-4.2,4.3v31v31l4.8,4.7l4.8,4.7l4.7-4.8l4.7-4.8v-30.5v-30.5l-4.8-4.7c-2.6-2.6-5-4.7-5.3-4.7
	S664.5,487.9,662.2,490.3z"/>
<path class="st1" d="M1101.8,506.5l-4.8,5.4v21.8v21.9l4.8,4.7l4.8,4.7l4.7-4.8l4.7-4.8v-22.5v-22.5l-4.7-4.7l-4.8-4.6L1101.8,506.5
	z"/>
<path class="st1" d="M459.7,511.8l-4.7,4.8v29.9v30l4.2-5c2.4-2.8,6.6-7.5,9.5-10.6l5.3-5.6v-19.4v-19.5l-4.8-4.7l-4.8-4.7
	L459.7,511.8z"/>
<path class="st1" d="M521.7,511.8l-4.7,4.8v19.7v19.8l4.4,4.7l4.5,4.7l5-5l5.1-4.9V536v-19.6l-4.8-4.7l-4.8-4.7L521.7,511.8z"/>
<path class="st1" d="M944.2,512.9l-4.2,5v24.8v24.9l4.5,4.4l4.5,4.4l5-4.9l5-4.9v-24.4v-24.3l-4.2-5c-2.4-2.7-4.8-4.9-5.4-4.9
	C948.8,508,946.4,510.2,944.2,512.9z"/>
<path class="st1" d="M1199.5,518l-4.9,5l4.9,5l4.9,5h18.9h18.8l5.4-4.8l5.4-4.7l-5.2-5.3l-5.1-5.2h-19.1h-19.1L1199.5,518z"/>
<path class="st1" d="M1496.5,518l-4.9,5l4.9,5l4.9,5h18.9h18.8l5.4-4.8l5.4-4.7l-5.2-5.3l-5.1-5.2h-19.1h-19.1L1496.5,518z"/>
<path class="st1" d="M1679.5,518l-4.9,5l4.9,5l4.9,5h18.9h18.8l5.4-4.8l5.4-4.7l-5.2-5.3l-5.1-5.2h-19.1h-19.1L1679.5,518z"/>
<path class="st1" d="M856.7,519l-5.2,5.1l5.5,4.9l5.5,5h19h19.1l4.9-5.1l5-5.1l-5.4-4.9l-5.5-4.9h-18.9h-18.8L856.7,519z"/>
<path class="st1" d="M1298.7,519l-5.2,5.1l5.5,4.9l5.5,5h19h19.1l4.9-5.1l5-5.1l-5.4-4.9l-5.5-4.9h-18.9h-18.8L1298.7,519z"/>
<path class="st1" d="M1731.3,530.2c-4.2,4.3-4.2,4.3-4.8,13.8l-0.7,9.5l5.1,5l5.1,4.9l5-4.9l5-4.9v-9.1v-9.1l-4.8-4.7
	c-2.6-2.6-5-4.7-5.3-4.7S1733.6,527.9,1731.3,530.2z"/>
<path class="st1" d="M845.5,532l-4.9,4.9l-0.4,8.5l-0.4,8.5l4.8,5.5l4.9,5.5l5.3-5.2l5.2-5.1v-9.1v-9.1l-4.8-4.7l-4.8-4.7L845.5,532
	z"/>
<path class="st1" d="M906.6,532.3l-4.6,5.4v8.9v9l4.8,4.7l4.8,4.7l4.7-4.8l4.7-4.8v-9.5v-9.5l-4.9-4.8l-4.8-4.7L906.6,532.3z"/>
<path class="st1" d="M1188.3,531.2c-4.2,4.3-4.2,4.3-4.8,13.8l-0.7,9.5l5.1,5l5.1,4.9l5-4.9l5-4.9v-9.1v-9.1l-4.8-4.7
	c-2.6-2.6-5-4.7-5.3-4.7S1190.6,528.9,1188.3,531.2z"/>
<path class="st1" d="M1287.5,532l-4.9,4.9l-0.4,8.5l-0.4,8.5l4.8,5.5l4.9,5.5l5.3-5.2l5.2-5.1v-9.1v-9.1l-4.8-4.7l-4.8-4.7
	L1287.5,532z"/>
<path class="st1" d="M1348.6,532.3l-4.6,5.4v8.9v9l4.8,4.7l4.8,4.7l4.7-4.8l4.7-4.8v-9.5v-9.5l-4.9-4.8l-4.8-4.7L1348.6,532.3z"/>
<path class="st1" d="M1485.3,531.2c-4.2,4.3-4.2,4.3-4.8,13.8l-0.7,9.5l5.1,5l5.1,4.9l5-4.9l5-4.9v-9.1v-9.1l-4.8-4.7
	c-2.6-2.6-5-4.7-5.3-4.7S1487.6,528.9,1485.3,531.2z"/>
<path class="st1" d="M1397.6,561.9l-4.8,4.8l4.9,4.6l4.8,4.7h19.5h19.6l4.7-4.8l4.7-4.8l-4.8-4.7l-4.8-4.7h-19.5h-19.5L1397.6,561.9
	z"/>
<path class="st1" d="M470.4,563.2c-2.8,2.9-6.5,7.2-8.3,9.5l-3.3,4.3h27.9h27.8l5.3-4.6l5.3-4.7l-4.7-4.8l-4.8-4.9h-20.1h-20.1
	L470.4,563.2z"/>
<path class="st1" d="M610.9,562.7l-5,4.6l4.8,4.9l4.7,4.8h19.4h19.3l5-4.2c2.7-2.2,4.9-4.5,4.9-4.9c0-0.4-2.1-2.8-4.7-5.3l-4.8-4.6
	h-19.3h-19.3L610.9,562.7z"/>
<path class="st1" d="M856.3,562.4l-4.8,4.4l5,5.1l4.9,5.1H881h19.6l4.7-4.8l4.7-4.8l-4.8-4.7l-4.8-4.7h-19.6h-19.6L856.3,562.4z"/>
<path class="st1" d="M1113.2,562.3c-2.3,2.3-4.2,4.6-4.2,4.9c0,0.4,2.1,2.7,4.8,5.2l4.7,4.6h19h19l5.3-4.6l5.3-4.7l-4.7-4.8
	l-4.8-4.9h-20.1h-20.1L1113.2,562.3z"/>
<path class="st1" d="M1200.7,562.8l-4.7,4.8l4.8,4.7l4.8,4.7h19.5h19.5l4.7-4.8l4.7-4.8l-4.8-4.7l-4.8-4.7h-19.5h-19.5L1200.7,562.8
	z"/>
<path class="st1" d="M1298.3,562.4l-4.8,4.4l5,5.1l4.9,5.1h19.6h19.6l4.7-4.8l4.7-4.8l-4.8-4.7l-4.8-4.7h-19.6h-19.6L1298.3,562.4z"
	/>
<path class="st1" d="M1497.7,562.8l-4.7,4.8l4.8,4.7l4.8,4.7h19.5h19.5l4.7-4.8l4.7-4.8l-4.8-4.7l-4.8-4.7h-19.5h-19.5L1497.7,562.8
	z"/>
<path class="st1" d="M1680.7,562.8l-4.7,4.8l4.8,4.7l4.8,4.7h19.5h19.5l4.7-4.8l4.7-4.8l-4.8-4.7l-4.8-4.7h-19.5h-19.5L1680.7,562.8
	z"/>
<path class="st1" d="M1921.6,562.8l-4.7,4.9l5.1,4.6l5.2,4.7h19.2h19.1l4.8-4.1c2.6-2.2,4.7-4.6,4.7-5.3s-2.2-3.2-4.9-5.4l-5-4.2
	h-19.3h-19.4L1921.6,562.8z"/>
<path class="st1" d="M662.1,575.9l-4.1,4.9v13.8v13.8l4.6,4.7l4.7,4.7l4.8-5.1l4.8-5.2l0.1-13.1v-13.2l-4.6-5.1
	c-2.5-2.8-5-5.1-5.4-5.1C666.6,571,664.3,573.2,662.1,575.9z"/>
<path class="st1" d="M1909.7,575.8l-4.7,4.8v13.3v13.2l4.7,5.5l4.7,5.4l4.8-4.7l4.8-4.7v-14.1v-14.1l-4.8-4.7l-4.8-4.7L1909.7,575.8
	z"/>
<path class="st1" d="M611.8,615.6c-2.7,2.5-4.8,4.9-4.8,5.3c0,0.4,2.2,2.7,4.9,4.9l5,4.2h19.3h19.4l4.7-4.8l4.7-4.8l-4.8-4.7
	l-4.8-4.7H636h-19.5L611.8,615.6z"/>
</svg>
